<svg xmlns="http://www.w3.org/2000/svg" xmlns:xlink="http://www.w3.org/1999/xlink" width="1080" zoomAndPan="magnify" viewBox="0 0 810 809.999993" height="1080" preserveAspectRatio="xMidYMid meet" version="1.0"><defs><g/><clipPath id="84889c8bde"><path d="M 0 0 L 810 0 L 810 810 L 0 810 Z M 0 0 " clip-rule="nonzero"/></clipPath><clipPath id="d9ddb0e235"><rect x="0" width="810" y="0" height="810"/></clipPath></defs><rect x="-81" width="972" fill="#ffffff" y="-80.999999" height="971.999992" fill-opacity="1"/><rect x="-81" width="972" fill="#ffffff" y="-80.999999" height="971.999992" fill-opacity="1"/><g transform="matrix(1, 0, 0, 1, 0, 0.000000000000039746)"><g clip-path="url(#d9ddb0e235)"><g clip-path="url(#84889c8bde)"><rect x="-178.2" width="1166.4" fill="#3517eb" height="1166.39999" y="-178.199998" fill-opacity="1"/></g></g></g><g fill="#ffffff" fill-opacity="1"><g transform="translate(272.906092, 620.822595)"><g><path d="M 181.15625 -39.984375 C 191.175781 -39.984375 200.859375 -40.722656 210.203125 -42.203125 C 219.546875 -43.691406 226.953125 -45.234375 232.421875 -46.828125 L 232.421875 -3.421875 C 226.265625 -0.453125 217.207031 2 205.25 3.9375 C 193.289062 5.875 182.523438 6.84375 172.953125 6.84375 C 100.492188 6.84375 64.265625 -31.328125 64.265625 -107.671875 L 64.265625 -330.515625 L 10.59375 -330.515625 L 10.59375 -357.859375 L 64.265625 -381.453125 L 88.1875 -461.421875 L 121 -461.421875 L 121 -374.609375 L 229.6875 -374.609375 L 229.6875 -330.515625 L 121 -330.515625 L 121 -110.0625 C 121 -87.5 126.351562 -70.175781 137.0625 -58.09375 C 147.769531 -46.019531 162.46875 -39.984375 181.15625 -39.984375 Z M 181.15625 -39.984375 "/></g></g></g></svg>